<svg xmlns="http://www.w3.org/2000/svg" width="394.0mm" height="352mm" viewBox="0 0 394.0 352" font-family="Noto Sans CJK KR,WenQuanYi Zen Hei,sans-serif">
<rect width="100%" height="100%" fill="#fff"/>
<polygon points="40.0,115.0 101.0,115.0 102.0,115.0 102.0,89.0 106.0,85.0 153.0,85.0 160.0,111.0 160.0,115.0 161.0,115.0 161.0,55.0 164.0,43.0 167.0,40.0 215.0,40.0 218.0,43.0 221.0,55.0 221.0,115.0 222.0,115.0 222.0,111.0 229.0,85.0 276.0,85.0 280.0,89.0 280.0,115.0 281.0,115.0 341.0,115.0 354.0,118.5 354.0,163.5 341.0,167.0 281.0,167.0 280.0,167.0 280.0,193.0 276.0,197.0 229.0,197.0 222.0,171.0 222.0,167.0 221.0,167.0 221.0,227.0 218.0,239.0 215.0,242.0 167.0,242.0 164.0,239.0 161.0,227.0 161.0,167.0 160.0,167.0 160.0,171.0 153.0,197.0 106.0,197.0 102.0,193.0 102.0,167.0 101.0,167.0 40.0,167.0" fill="#E8EEFA" stroke="#BFD7EA" stroke-width="6"/><polygon points="40.0,115.0 101.0,115.0 102.0,115.0 102.0,89.0 106.0,85.0 153.0,85.0 160.0,111.0 160.0,115.0 161.0,115.0 161.0,55.0 164.0,43.0 167.0,40.0 215.0,40.0 218.0,43.0 221.0,55.0 221.0,115.0 222.0,115.0 222.0,111.0 229.0,85.0 276.0,85.0 280.0,89.0 280.0,115.0 281.0,115.0 341.0,115.0 354.0,118.5 354.0,163.5 341.0,167.0 281.0,167.0 280.0,167.0 280.0,193.0 276.0,197.0 229.0,197.0 222.0,171.0 222.0,167.0 221.0,167.0 221.0,227.0 218.0,239.0 215.0,242.0 167.0,242.0 164.0,239.0 161.0,227.0 161.0,167.0 160.0,167.0 160.0,171.0 153.0,197.0 106.0,197.0 102.0,193.0 102.0,167.0 101.0,167.0 40.0,167.0" fill="#1E22AA" fill-opacity="0.10"/>
<rect x="43.0" y="118.0" width="55.0" height="46.0" fill="none" stroke="#22A06B" stroke-width="0.25" stroke-dasharray="1,1"/>
<rect x="104.0" y="118.0" width="54.0" height="46.0" fill="none" stroke="#22A06B" stroke-width="0.25" stroke-dasharray="1,1"/>
<rect x="164.0" y="118.0" width="54.0" height="46.0" fill="none" stroke="#22A06B" stroke-width="0.25" stroke-dasharray="1,1"/>
<rect x="224.0" y="118.0" width="54.0" height="46.0" fill="none" stroke="#22A06B" stroke-width="0.25" stroke-dasharray="1,1"/>
<rect x="284.0" y="118.0" width="54.0" height="46.0" fill="none" stroke="#22A06B" stroke-width="0.25" stroke-dasharray="1,1"/>
<rect x="51.6" y="119.0" width="37.8" height="5.7" fill="none" stroke="#C8743A" stroke-width="0.3"/>
<text x="70.5" y="122.6" font-size="2.4" fill="#C8743A" text-anchor="middle">워드마크 62% 유광 포일</text>
<rect x="66.8" y="131.3" width="7.3" height="7.3" fill="none" stroke="#C8743A" stroke-width="0.3"/>
<text x="70.5" y="135.7" font-size="1.2" fill="#C8743A" text-anchor="middle">심볼12%</text>
<rect x="46.1" y="145.2" width="48.8" height="2.5" fill="none" stroke="#333" stroke-width="0.3"/>
<text x="70.5" y="147.2" font-size="2.4" fill="#333" text-anchor="middle">제품명</text>
<rect x="58.3" y="148.9" width="24.4" height="2.2" fill="none" stroke="#333" stroke-width="0.3"/>
<text x="70.5" y="150.8" font-size="1.7" fill="#333" text-anchor="middle">TRX-8™</text>
<rect x="47.3" y="152.3" width="46.4" height="1.8" fill="none" stroke="#333" stroke-width="0.3"/>
<text x="70.5" y="154.0" font-size="2.4" fill="#333" text-anchor="middle">효능 한 줄</text>
<rect x="55.2" y="158.6" width="30.5" height="3.2" fill="none" stroke="#333" stroke-width="0.3"/>
<text x="70.5" y="161.0" font-size="2.2" fill="#333" text-anchor="middle">용량 3.2mm↑</text>
<text x="70.5" y="112" font-size="2.6" fill="#C8743A" text-anchor="middle">① 앞표지 (닫힌 정면)</text>
<rect x="285.0" y="119.0" width="52.0" height="5.2" fill="none" stroke="#333" stroke-width="0.3"/>
<text x="311.0" y="122.4" font-size="2.4" fill="#333" text-anchor="middle">헤드라인 클레임</text>
<rect x="285.0" y="123.8" width="25.0" height="26.0" fill="none" stroke="#333" stroke-width="0.3"/>
<text x="297.5" y="137.6" font-size="1.8" fill="#333" text-anchor="middle">비포</text>
<rect x="311.5" y="123.8" width="25.0" height="26.0" fill="none" stroke="#333" stroke-width="0.3"/>
<text x="324.0" y="137.6" font-size="1.8" fill="#333" text-anchor="middle">애프터</text>
<rect x="285.0" y="152.4" width="52.0" height="12.5" fill="none" stroke="#333" stroke-width="0.3"/>
<text x="311.0" y="159.5" font-size="2.4" fill="#333" text-anchor="middle">체크리스트 + 조건 *</text>
<text x="311.0" y="112" font-size="2.6" fill="#333" text-anchor="middle">② 안쪽 정면 (표지 열면)</text>
<rect x="225.0" y="119.0" width="52.0" height="11.4" fill="none" stroke="#333" stroke-width="0.3"/>
<text x="251.0" y="125.5" font-size="2.4" fill="#333" text-anchor="middle">% 클레임 3줄</text>
<rect x="225.0" y="130.6" width="52.0" height="31.2" fill="none" stroke="#333" stroke-width="0.3"/>
<text x="251.0" y="147.0" font-size="2.4" fill="#333" text-anchor="middle">% + 비포/애프터</text>
<text x="251.0" y="83.0" font-size="2.4" fill="#333" text-anchor="middle">③ 우측면</text>
<rect x="105.0" y="119.0" width="52.0" height="26.4" fill="none" stroke="#333" stroke-width="0.3"/>
<text x="131.0" y="133.0" font-size="2.4" fill="#333" text-anchor="middle">성분 스토리</text>
<rect x="104.0" y="148.4" width="54.0" height="15.6" fill="none" stroke="#D97706" stroke-width="0.3"/>
<text x="131.0" y="157.0" font-size="2.4" fill="#D97706" text-anchor="middle">스티커 존</text>
<rect x="165.0" y="119.0" width="35.0" height="44.0" fill="none" stroke="#333" stroke-width="0.3"/>
<text x="182.5" y="141.8" font-size="2.4" fill="#333" text-anchor="middle">후면 전성분</text>
<rect x="203.0" y="119.0" width="15.0" height="15.0" fill="none" stroke="#000" stroke-width="0.3"/>
<text x="210.5" y="127.3" font-size="1.3" fill="#000" text-anchor="middle">QR</text>
<rect x="164.0" y="58.0" width="54.0" height="54.0" fill="none" stroke="#C8743A" stroke-width="0.3"/>
<text x="191.0" y="85.8" font-size="2.4" fill="#C8743A" text-anchor="middle">상단 TURNOVA (180°)</text>
<rect x="176.0" y="170.0" width="30.0" height="21.0" fill="none" stroke="#000" stroke-width="0.3"/>
<text x="191.0" y="181.3" font-size="2.1" fill="#000" text-anchor="middle">바코드</text>
<rect x="171.0" y="193.0" width="40.0" height="12.0" fill="none" stroke="#D97706" stroke-width="0.3"/>
<text x="191.0" y="199.8" font-size="2.4" fill="#D97706" text-anchor="middle">코딩창</text>
<rect x="341.0" y="118" width="12" height="46" fill="#fff" stroke="#D97706" stroke-width="0.3" stroke-dasharray="1,1"/>
<polygon points="40.0,115.0 101.0,115.0 102.0,115.0 102.0,89.0 106.0,85.0 153.0,85.0 160.0,111.0 160.0,115.0 161.0,115.0 161.0,55.0 164.0,43.0 167.0,40.0 215.0,40.0 218.0,43.0 221.0,55.0 221.0,115.0 222.0,115.0 222.0,111.0 229.0,85.0 276.0,85.0 280.0,89.0 280.0,115.0 281.0,115.0 341.0,115.0 354.0,118.5 354.0,163.5 341.0,167.0 281.0,167.0 280.0,167.0 280.0,193.0 276.0,197.0 229.0,197.0 222.0,171.0 222.0,167.0 221.0,167.0 221.0,227.0 218.0,239.0 215.0,242.0 167.0,242.0 164.0,239.0 161.0,227.0 161.0,167.0 160.0,167.0 160.0,171.0 153.0,197.0 106.0,197.0 102.0,193.0 102.0,167.0 101.0,167.0 40.0,167.0" fill="none" stroke="#E3001B" stroke-width="0.35"/>
<path d="M40,137.88 A3.12,3.12 0 0,1 40,144.12" fill="#fff" stroke="#E3001B" stroke-width="0.35"/>
<line x1="101.0" y1="115" x2="101.0" y2="167" stroke="#0070C0" stroke-width="0.35" stroke-dasharray="2,1.2"/>
<line x1="161.0" y1="115" x2="161.0" y2="167" stroke="#0070C0" stroke-width="0.35" stroke-dasharray="2,1.2"/>
<line x1="221.0" y1="115" x2="221.0" y2="167" stroke="#0070C0" stroke-width="0.35" stroke-dasharray="2,1.2"/>
<line x1="281.0" y1="115" x2="281.0" y2="167" stroke="#0070C0" stroke-width="0.35" stroke-dasharray="2,1.2"/>
<line x1="341.0" y1="115" x2="341.0" y2="167" stroke="#0070C0" stroke-width="0.35" stroke-dasharray="2,1.2"/>
<line x1="101.0" y1="115" x2="341.0" y2="115" stroke="#0070C0" stroke-width="0.35" stroke-dasharray="2,1.2"/>
<line x1="101.0" y1="167" x2="341.0" y2="167" stroke="#0070C0" stroke-width="0.35" stroke-dasharray="2,1.2"/>
<line x1="161.0" y1="55" x2="221.0" y2="55" stroke="#0070C0" stroke-width="0.35" stroke-dasharray="2,1.2"/>
<line x1="161.0" y1="227" x2="221.0" y2="227" stroke="#0070C0" stroke-width="0.35" stroke-dasharray="2,1.2"/>
<text x="70.5" y="165.7" font-size="2.2" fill="#999" text-anchor="middle">앞표지 C</text>
<text x="131.0" y="165.7" font-size="2.2" fill="#999" text-anchor="middle">좌측면 L</text>
<text x="191.0" y="165.7" font-size="2.2" fill="#999" text-anchor="middle">후면 B</text>
<text x="251.0" y="165.7" font-size="2.2" fill="#999" text-anchor="middle">우측면 R</text>
<text x="311.0" y="165.7" font-size="2.2" fill="#999" text-anchor="middle">안쪽 정면 I</text>
<rect x="40" y="252.0" width="6" height="3" fill="#E3001B"/><text x="49" y="254.6" font-size="3" fill="#222">칼선 실선 (앞표지 자유단 엄지 홈 포함)</text>
<rect x="40" y="257.5" width="6" height="3" fill="#0070C0"/><text x="49" y="260.1" font-size="3" fill="#222">괘선 점선 — C·L 경첩 괘선은 개폐용 이중 괘선 권장</text>
<rect x="40" y="263.0" width="6" height="3" fill="#BFD7EA"/><text x="49" y="265.6" font-size="3" fill="#222">도련 3mm</text>
<rect x="40" y="268.5" width="6" height="3" fill="#22A06B"/><text x="49" y="271.1" font-size="3" fill="#222">안전영역 3mm</text>
<rect x="40" y="274.0" width="6" height="3" fill="#C8743A"/><text x="49" y="276.6" font-size="3" fill="#222">유광 코퍼 포일: 워드마크·심볼만</text>
<rect x="40" y="279.5" width="6" height="3" fill="#D97706"/><text x="49" y="282.1" font-size="3" fill="#222">녹아웃: 접착부·코딩창·스티커존</text>
<rect x="40" y="285.0" width="6" height="3" fill="#7A5CC2"/><text x="49" y="287.6" font-size="3" fill="#222">전면: 무광 라미네이팅 + 에칭 UV(무늬 없는 미세 결)</text>
<text x="40" y="296.5" font-size="3.1" fill="#000">TURNOVA 플립 단상자 칼선 · jar-30ml · 내치수 W60×D60×H52 mm (가정: 자 Ø56×H48)</text>
<text x="40" y="301.5" font-size="3.1" fill="#000">구조: 앞표지(C)가 좌측면 앞모서리에 경첩 → 열면 안쪽 정면(I)·우측면(R)에 클레임·비포/애프터 (샬롯 틸버리식)</text>
<text x="40" y="306.5" font-size="3.1" fill="#000">접착날개는 I 끝 → L 안쪽에 접착. 상·하 턱은 후면 B에 연결(STE). 표지 안쪽면은 별도 인쇄(사용법·8 PM 리추얼) 시 양면 인쇄</text>
<text x="40" y="311.5" font-size="3.1" fill="#000">닫힘 유지: 표지 폭 +1mm 감쌈 + 엄지 홈. 필요 시 투명 원형 씰(Ø15) 또는 마이크로 자석 (업체 확인)</text>
<text x="40" y="316.5" font-size="3.1" fill="#000">※ 비포/애프터·% 클레임은 인체적용시험 실증 + 시험 조건(*) 병기 후에만 인쇄 (가이드 9-1). 치수는 가정값</text>
</svg>